<mxfile host="app.diagrams.net" modified="2023-01-27T03:59:26.439Z" agent="5.0 (Windows NT 10.0; Win64; x64) AppleWebKit/537.36 (KHTML, like Gecko) Chrome/109.0.0.0 Safari/537.36" etag="aKpHlKPfWGbnanxKNsS-" version="20.8.13" type="github">
  <diagram name="Page-1" id="IEwUpU3qTkRRiil7ME8o">
    <mxGraphModel dx="1744" dy="920" grid="1" gridSize="10" guides="1" tooltips="1" connect="1" arrows="1" fold="1" page="1" pageScale="1" pageWidth="1200" pageHeight="1700" math="0" shadow="0">
      <root>
        <mxCell id="0" />
        <mxCell id="1" parent="0" />
        <mxCell id="KpacXPzI21dvigTeP0i2-1" value="rt" style="strokeWidth=1;shadow=0;dashed=0;align=center;html=1;shape=mxgraph.mockup.containers.browserWindow;rSize=0;strokeColor=#666666;strokeColor2=#008cff;strokeColor3=#c4c4c4;mainText=,;recursiveResize=0;" vertex="1" parent="1">
          <mxGeometry x="53.75" y="240" width="1090" height="1410" as="geometry" />
        </mxCell>
        <mxCell id="KpacXPzI21dvigTeP0i2-79" value="" style="rounded=0;whiteSpace=wrap;html=1;" vertex="1" parent="KpacXPzI21dvigTeP0i2-1">
          <mxGeometry x="226.25" y="660" width="683.75" height="60" as="geometry" />
        </mxCell>
        <mxCell id="KpacXPzI21dvigTeP0i2-2" value="Spotify Clone" style="strokeWidth=1;shadow=0;dashed=0;align=center;html=1;shape=mxgraph.mockup.containers.anchor;fontSize=17;fontColor=#666666;align=left;" vertex="1" parent="KpacXPzI21dvigTeP0i2-1">
          <mxGeometry x="60" y="12" width="110" height="26" as="geometry" />
        </mxCell>
        <mxCell id="KpacXPzI21dvigTeP0i2-3" value="https://localhost:4000/playlists/:id" style="strokeWidth=1;shadow=0;dashed=0;align=center;html=1;shape=mxgraph.mockup.containers.anchor;rSize=0;fontSize=17;fontColor=#666666;align=left;" vertex="1" parent="KpacXPzI21dvigTeP0i2-1">
          <mxGeometry x="130" y="60" width="250" height="26" as="geometry" />
        </mxCell>
        <mxCell id="KpacXPzI21dvigTeP0i2-4" value="" style="rounded=0;whiteSpace=wrap;html=1;rotation=90;" vertex="1" parent="KpacXPzI21dvigTeP0i2-1">
          <mxGeometry x="-555.93" y="665.94" width="1291.87" height="180" as="geometry" />
        </mxCell>
        <mxCell id="KpacXPzI21dvigTeP0i2-5" value="&lt;font style=&quot;font-size: 21px;&quot;&gt;LINKS&lt;/font&gt;" style="text;html=1;strokeColor=none;fillColor=none;align=center;verticalAlign=middle;whiteSpace=wrap;rounded=0;" vertex="1" parent="KpacXPzI21dvigTeP0i2-1">
          <mxGeometry x="20" y="130" width="120" height="110" as="geometry" />
        </mxCell>
        <mxCell id="KpacXPzI21dvigTeP0i2-6" value="&lt;font style=&quot;font-size: 21px;&quot;&gt;Local&lt;br&gt;Playlists&lt;br&gt;&lt;/font&gt;" style="text;html=1;strokeColor=none;fillColor=none;align=center;verticalAlign=middle;whiteSpace=wrap;rounded=0;" vertex="1" parent="KpacXPzI21dvigTeP0i2-1">
          <mxGeometry x="20" y="270" width="120" height="110" as="geometry" />
        </mxCell>
        <mxCell id="KpacXPzI21dvigTeP0i2-7" value="" style="rounded=1;whiteSpace=wrap;html=1;fontSize=21;" vertex="1" parent="KpacXPzI21dvigTeP0i2-1">
          <mxGeometry x="200" y="130" width="580" height="60" as="geometry" />
        </mxCell>
        <mxCell id="KpacXPzI21dvigTeP0i2-8" value="Main Search Bar" style="text;html=1;strokeColor=none;fillColor=none;align=center;verticalAlign=middle;whiteSpace=wrap;rounded=0;fontSize=21;" vertex="1" parent="KpacXPzI21dvigTeP0i2-1">
          <mxGeometry x="210" y="145" width="530" height="30" as="geometry" />
        </mxCell>
        <mxCell id="KpacXPzI21dvigTeP0i2-9" value="" style="rounded=0;whiteSpace=wrap;html=1;fontSize=21;" vertex="1" parent="KpacXPzI21dvigTeP0i2-1">
          <mxGeometry x="950" y="130" width="120" height="90" as="geometry" />
        </mxCell>
        <mxCell id="KpacXPzI21dvigTeP0i2-10" value="Logged in user menu" style="text;html=1;strokeColor=none;fillColor=none;align=center;verticalAlign=middle;whiteSpace=wrap;rounded=0;fontSize=21;" vertex="1" parent="KpacXPzI21dvigTeP0i2-1">
          <mxGeometry x="980" y="160" width="60" height="30" as="geometry" />
        </mxCell>
        <mxCell id="KpacXPzI21dvigTeP0i2-11" value="" style="rounded=0;whiteSpace=wrap;html=1;" vertex="1" parent="KpacXPzI21dvigTeP0i2-1">
          <mxGeometry x="220" y="283.75" width="270" height="236.25" as="geometry" />
        </mxCell>
        <mxCell id="KpacXPzI21dvigTeP0i2-72" value="Playlist Picture" style="text;html=1;strokeColor=none;fillColor=none;align=center;verticalAlign=middle;whiteSpace=wrap;rounded=0;fontSize=21;" vertex="1" parent="KpacXPzI21dvigTeP0i2-1">
          <mxGeometry x="90" y="370" width="530" height="30" as="geometry" />
        </mxCell>
        <mxCell id="KpacXPzI21dvigTeP0i2-73" value="Delete Playlist menu" style="text;html=1;strokeColor=none;fillColor=none;align=center;verticalAlign=middle;whiteSpace=wrap;rounded=0;fontSize=21;" vertex="1" parent="KpacXPzI21dvigTeP0i2-1">
          <mxGeometry x="396.25" y="310" width="530" height="30" as="geometry" />
        </mxCell>
        <mxCell id="KpacXPzI21dvigTeP0i2-74" value="Playlist name" style="text;html=1;strokeColor=none;fillColor=none;align=center;verticalAlign=middle;whiteSpace=wrap;rounded=0;fontSize=21;" vertex="1" parent="KpacXPzI21dvigTeP0i2-1">
          <mxGeometry x="366.25" y="350" width="530" height="30" as="geometry" />
        </mxCell>
        <mxCell id="KpacXPzI21dvigTeP0i2-75" value="Description" style="text;html=1;strokeColor=none;fillColor=none;align=center;verticalAlign=middle;whiteSpace=wrap;rounded=0;fontSize=21;" vertex="1" parent="KpacXPzI21dvigTeP0i2-1">
          <mxGeometry x="355" y="386.87" width="530" height="30" as="geometry" />
        </mxCell>
        <mxCell id="KpacXPzI21dvigTeP0i2-76" value="Username of playlist owner" style="text;html=1;strokeColor=none;fillColor=none;align=center;verticalAlign=middle;whiteSpace=wrap;rounded=0;fontSize=21;" vertex="1" parent="KpacXPzI21dvigTeP0i2-1">
          <mxGeometry x="430" y="433.75" width="530" height="30" as="geometry" />
        </mxCell>
        <mxCell id="KpacXPzI21dvigTeP0i2-77" value="" style="rounded=0;whiteSpace=wrap;html=1;" vertex="1" parent="KpacXPzI21dvigTeP0i2-1">
          <mxGeometry x="226.25" y="550" width="683.75" height="60" as="geometry" />
        </mxCell>
        <mxCell id="KpacXPzI21dvigTeP0i2-78" value="Rows for song with play button and remove from playlist button" style="text;html=1;strokeColor=none;fillColor=none;align=center;verticalAlign=middle;whiteSpace=wrap;rounded=0;fontSize=21;" vertex="1" parent="KpacXPzI21dvigTeP0i2-1">
          <mxGeometry x="236.25" y="565" width="643.75" height="30" as="geometry" />
        </mxCell>
        <mxCell id="KpacXPzI21dvigTeP0i2-80" value="Rows for song with play button and remove from playlist button" style="text;html=1;strokeColor=none;fillColor=none;align=center;verticalAlign=middle;whiteSpace=wrap;rounded=0;fontSize=21;" vertex="1" parent="KpacXPzI21dvigTeP0i2-1">
          <mxGeometry x="246.25" y="675" width="643.75" height="30" as="geometry" />
        </mxCell>
        <mxCell id="KpacXPzI21dvigTeP0i2-81" value="" style="rounded=0;whiteSpace=wrap;html=1;" vertex="1" parent="KpacXPzI21dvigTeP0i2-1">
          <mxGeometry x="226.25" y="780" width="683.75" height="60" as="geometry" />
        </mxCell>
        <mxCell id="KpacXPzI21dvigTeP0i2-82" value="Rows for song with play button and remove from playlist button" style="text;html=1;strokeColor=none;fillColor=none;align=center;verticalAlign=middle;whiteSpace=wrap;rounded=0;fontSize=21;" vertex="1" parent="KpacXPzI21dvigTeP0i2-1">
          <mxGeometry x="246.25" y="795" width="643.75" height="30" as="geometry" />
        </mxCell>
        <mxCell id="KpacXPzI21dvigTeP0i2-85" value="" style="rounded=1;whiteSpace=wrap;html=1;fontSize=21;" vertex="1" parent="KpacXPzI21dvigTeP0i2-1">
          <mxGeometry x="200" y="915" width="580" height="60" as="geometry" />
        </mxCell>
        <mxCell id="KpacXPzI21dvigTeP0i2-84" value="Song Search Bar" style="text;html=1;strokeColor=none;fillColor=none;align=center;verticalAlign=middle;whiteSpace=wrap;rounded=0;fontSize=21;" vertex="1" parent="KpacXPzI21dvigTeP0i2-1">
          <mxGeometry x="90" y="930" width="530" height="30" as="geometry" />
        </mxCell>
        <mxCell id="KpacXPzI21dvigTeP0i2-87" value="" style="rounded=0;whiteSpace=wrap;html=1;" vertex="1" parent="KpacXPzI21dvigTeP0i2-1">
          <mxGeometry x="236.25" y="1055" width="763.75" height="60" as="geometry" />
        </mxCell>
        <mxCell id="KpacXPzI21dvigTeP0i2-86" value="Rows for songs from search results with play button and add to playlist button" style="text;html=1;strokeColor=none;fillColor=none;align=center;verticalAlign=middle;whiteSpace=wrap;rounded=0;fontSize=21;" vertex="1" parent="KpacXPzI21dvigTeP0i2-1">
          <mxGeometry x="252.5" y="1070" width="737.5" height="30" as="geometry" />
        </mxCell>
        <mxCell id="KpacXPzI21dvigTeP0i2-88" value="" style="rounded=0;whiteSpace=wrap;html=1;" vertex="1" parent="KpacXPzI21dvigTeP0i2-1">
          <mxGeometry x="236.25" y="1160" width="763.75" height="60" as="geometry" />
        </mxCell>
        <mxCell id="KpacXPzI21dvigTeP0i2-89" value="" style="rounded=0;whiteSpace=wrap;html=1;" vertex="1" parent="KpacXPzI21dvigTeP0i2-1">
          <mxGeometry x="236.25" y="1270" width="763.75" height="60" as="geometry" />
        </mxCell>
        <mxCell id="KpacXPzI21dvigTeP0i2-90" value="Rows for songs from search results with play button and add to playlist button" style="text;html=1;strokeColor=none;fillColor=none;align=center;verticalAlign=middle;whiteSpace=wrap;rounded=0;fontSize=21;" vertex="1" parent="KpacXPzI21dvigTeP0i2-1">
          <mxGeometry x="249.37" y="1175" width="737.5" height="30" as="geometry" />
        </mxCell>
        <mxCell id="KpacXPzI21dvigTeP0i2-91" value="Rows for songs from search results with play button and add to playlist button" style="text;html=1;strokeColor=none;fillColor=none;align=center;verticalAlign=middle;whiteSpace=wrap;rounded=0;fontSize=21;" vertex="1" parent="KpacXPzI21dvigTeP0i2-1">
          <mxGeometry x="249.37" y="1285" width="737.5" height="30" as="geometry" />
        </mxCell>
        <mxCell id="KpacXPzI21dvigTeP0i2-114" value="" style="shape=singleArrow;direction=south;whiteSpace=wrap;html=1;rotation=21;" vertex="1" parent="KpacXPzI21dvigTeP0i2-1">
          <mxGeometry x="684.63" y="-51.03" width="40" height="360" as="geometry" />
        </mxCell>
        <mxCell id="KpacXPzI21dvigTeP0i2-71" value="&lt;font style=&quot;font-size: 21px;&quot;&gt;The page displays the playlist content of a playlist listed in the navbar on the left. It allows a user to play songs included in the playlist, search for new songs and add them to the playlist. Clicking on the playlist will open a menu that allows updating the playlist.&lt;/font&gt;" style="text;html=1;strokeColor=none;fillColor=none;align=center;verticalAlign=middle;whiteSpace=wrap;rounded=0;" vertex="1" parent="1">
          <mxGeometry x="40" y="40" width="630" height="150" as="geometry" />
        </mxCell>
        <mxCell id="KpacXPzI21dvigTeP0i2-113" value="" style="group" vertex="1" connectable="0" parent="1">
          <mxGeometry x="700" y="40" width="460" height="181" as="geometry" />
        </mxCell>
        <mxCell id="KpacXPzI21dvigTeP0i2-110" value="" style="rounded=0;whiteSpace=wrap;html=1;" vertex="1" parent="KpacXPzI21dvigTeP0i2-113">
          <mxGeometry width="460" height="181" as="geometry" />
        </mxCell>
        <mxCell id="KpacXPzI21dvigTeP0i2-97" value="Name" style="strokeWidth=1;shadow=0;dashed=0;align=center;html=1;shape=mxgraph.mockup.forms.anchor;align=right;spacingRight=2;fontColor=#666666;" vertex="1" parent="KpacXPzI21dvigTeP0i2-113">
          <mxGeometry x="40" y="21" width="50" height="18" as="geometry" />
        </mxCell>
        <mxCell id="KpacXPzI21dvigTeP0i2-98" value="playlist name" style="strokeWidth=1;shadow=0;dashed=0;align=center;html=1;shape=mxgraph.mockup.forms.rrect;fillColor=#ffffff;rSize=0;fontColor=#666666;align=left;spacingLeft=3;strokeColor=#999999;" vertex="1" parent="KpacXPzI21dvigTeP0i2-113">
          <mxGeometry x="90" y="21" width="350" height="18" as="geometry" />
        </mxCell>
        <mxCell id="KpacXPzI21dvigTeP0i2-99" value="Description" style="strokeWidth=1;shadow=0;dashed=0;align=center;html=1;shape=mxgraph.mockup.forms.anchor;align=right;spacingRight=2;fontColor=#666666;" vertex="1" parent="KpacXPzI21dvigTeP0i2-113">
          <mxGeometry x="40" y="56" width="50" height="18" as="geometry" />
        </mxCell>
        <mxCell id="KpacXPzI21dvigTeP0i2-100" value="playlist description" style="strokeWidth=1;shadow=0;dashed=0;align=center;html=1;shape=mxgraph.mockup.forms.rrect;fillColor=#ffffff;rSize=0;fontColor=#666666;align=left;spacingLeft=3;strokeColor=#999999;" vertex="1" parent="KpacXPzI21dvigTeP0i2-113">
          <mxGeometry x="90" y="56" width="350" height="18" as="geometry" />
        </mxCell>
        <mxCell id="KpacXPzI21dvigTeP0i2-101" value="image_url" style="strokeWidth=1;shadow=0;dashed=0;align=center;html=1;shape=mxgraph.mockup.forms.anchor;align=right;spacingRight=2;fontColor=#666666;" vertex="1" parent="KpacXPzI21dvigTeP0i2-113">
          <mxGeometry x="40" y="91" width="50" height="18" as="geometry" />
        </mxCell>
        <mxCell id="KpacXPzI21dvigTeP0i2-102" value="playlist imaage url" style="strokeWidth=1;shadow=0;dashed=0;align=center;html=1;shape=mxgraph.mockup.forms.rrect;fillColor=#ffffff;rSize=0;fontColor=#666666;align=left;spacingLeft=3;strokeColor=#999999;" vertex="1" parent="KpacXPzI21dvigTeP0i2-113">
          <mxGeometry x="90" y="91" width="350" height="18" as="geometry" />
        </mxCell>
        <mxCell id="KpacXPzI21dvigTeP0i2-112" value="update playlist" style="strokeWidth=1;shadow=0;dashed=0;align=center;html=1;shape=mxgraph.mockup.buttons.button;strokeColor=#666666;fontColor=#ffffff;mainText=;buttonStyle=round;fontSize=17;fontStyle=1;fillColor=#008cff;whiteSpace=wrap;" vertex="1" parent="KpacXPzI21dvigTeP0i2-113">
          <mxGeometry x="300" y="131" width="130" height="40" as="geometry" />
        </mxCell>
      </root>
    </mxGraphModel>
  </diagram>
</mxfile>
